/* XPM */
static char *video_projector[] = {
/* columns rows colors chars-per-pixel */
"48 48 112 2 ",
"   c #010101",
".  c #0B0B0B",
"X  c #141414",
"o  c #1E1E1E",
"O  c #232323",
"+  c #2C2C2C",
"@  c #343434",
"#  c #313438",
"$  c #3B3B3B",
"%  c #313840",
"&  c #37404B",
"*  c #3A506B",
"=  c #434343",
"-  c #414349",
";  c #4C4C4C",
":  c #4F504F",
">  c #4B4C54",
",  c #4F5055",
"<  c #4E535C",
"1  c #535353",
"2  c #50515B",
"3  c #5C5C5C",
"4  c #4D5765",
"5  c #535E6C",
"6  c #4C627E",
"7  c #5C6272",
"8  c #53647B",
"9  c #5B6679",
"0  c #59697E",
"q  c #636363",
"w  c #676867",
"e  c #6B6B6B",
"r  c #6F706F",
"t  c #747474",
"y  c #777877",
"u  c #787875",
"i  c #7C7C7B",
"p  c #7F807F",
"a  c #386090",
"s  c #40618A",
"d  c #5C6D87",
"f  c #4E719C",
"g  c #5B7497",
"h  c #6B6F82",
"j  c #6E7482",
"k  c #6B758F",
"l  c #687792",
"z  c #617A9F",
"x  c #5275A2",
"c  c #5F7DA9",
"v  c #4F7EBB",
"b  c #617FAB",
"n  c #5080BD",
"m  c #7584A3",
"M  c #7888A9",
"N  c #858585",
"B  c #878887",
"V  c #80818B",
"C  c #8C8C8C",
"Z  c #90918E",
"A  c #818295",
"S  c #8E8E92",
"D  c #949494",
"F  c #9C9C9C",
"G  c #A1A29E",
"H  c #8E92A5",
"J  c #9799A2",
"K  c #9196AE",
"L  c #959DB4",
"P  c #9AA1BB",
"I  c #A3A3A3",
"U  c #A7A9A7",
"Y  c #A8A8A5",
"T  c #ACACAC",
"R  c #AEB0AE",
"E  c #A2A4B6",
"W  c #AAABB3",
"Q  c #B3B4B3",
"!  c #B9BAB6",
"~  c #BBBCBB",
"^  c #C2C2BF",
"/  c #ABAFC2",
"(  c #B5B6C0",
")  c #BCBCC3",
"_  c #B1B3CD",
"`  c #BDBECF",
"'  c #B3B6D1",
"]  c #C3C3C3",
"[  c #C7C9C7",
"{  c #CACBC7",
"}  c #C3C4CA",
"|  c #CCCCCB",
" . c #D1D1CF",
".. c #CACBD6",
"X. c #C3C5DC",
"o. c #D6D6D4",
"O. c #D8D9D7",
"+. c #DDDDDC",
"@. c #E0E0DE",
"#. c #C7C9E4",
"$. c #C8CAE5",
"%. c #D1D3E3",
"&. c #D5D8F1",
"*. c #D8D9F1",
"=. c #E4E4E3",
"-. c #E9E9E7",
";. c #ECEDEB",
":. c #F0F0EE",
">. c #F4F4F3",
",. c #F8F8F7",
"<. c #F9F9F9",
"1. c None",
/* pixels */
"1.1.1.1.1.1.1.1.1.1.1.1.1.1.1.1.1.1.1.1.1.1.1.1.1.1.1.1.1.1.1.1.1.1.1.1.1.1.1.1.1.1.1.1.1.1.1.1.",
"1.1.1.1.1.1.1.1.1.1.1.1.1.1.1.1.1.1.1.1.1.1.1.1.1.1.1.1.1.1.1.1.1.1.1.1.1.1.1.1.1.1.1.1.1.1.1.1.",
"1.1.1.1.1.1.1.1.1.1.1.1.1.1.1.1.1.1.1.1.1.1.1.1.1.1.1.1.1.1.1.1.1.1.1.1.1.1.1.1.1.1.1.1.1.1.1.1.",
"1.1.1.1.1.1.1.1.1.1.1.1.1.1.1.1.1.1.1.1.1.1.1.1.1.1.1.1.1.1.1.1.1.1.1.1.1.1.1.1.1.1.1.1.1.1.1.1.",
"1.1.1.1.1.1.1.1.1.1.1.1.1.1.1.1.1.1.1.1.1.1.1.1.1.1.1.1.1.1.1.1.1.1.1.1.1.1.1.1.1.1.1.1.1.1.1.1.",
"1.1.1.1.1.1.1.1.1.1.1.1.1.1.1.1.1.1.1.1.1.1.1.1.1.1.1.1.1.1.1.1.1.1.1.1.1.1.1.1.1.1.1.1.1.1.1.1.",
"1.1.1.1.1.1.1.1.1.1.1.1.1.1.1.1.1.1.1.1.1.1.1.1.1.1.1.1.1.1.1.1.1.1.1.1.1.1.1.1.1.1.1.1.1.1.1.1.",
"1.1.1.1.1.1.1.1.1.1.1.1.1.o.+.=.;.:.>.>.>.>.>.>.:.>.>.;.;.;.;.=.@.O. .1.1.1.1.1.1.1.1.1.1.1.1.1.",
"1.1.1.1.1.1.1.1.1.1.O.-.;.:.,.,.<.,.,.,.<.>.<.>.>.>.>.>.:.:.:.;.;.-.@.@.@.O.1.1.1.1.1.1.1.1.1.1.",
"1.1.1.1.1.1.1.1.O.@.-.;.>.<.<.<.<.<.<.,.<.,.,.>.>.>.>.>.>.:.:.:.:.;.;.;.-.@.@.@.1.1.1.1.1.1.1.1.",
"1.1.1.1.1.1.] +.+.-.;.;.,.<.<.<.<.<.<.,.,.,.>.<.>.>.>.>.>.:.>.:.:.;.;.-.;.-.@.@.@. .1.1.1.1.1.1.",
"1.1.1.1.1.Q O.+.=.-.;.>.<.<.<.<.<.<.<.<.<.>.<.>.>.>.>.>.>.:.:.:.:.:.;.;.;.-.;.@.=.@.] 1.1.1.1.1.",
"1.1.1.1.1.| +.@.-.-.;.>.>.<.<.<.<.<.<.,.,.,.>.,.>.>.>.>.:.:.>.;.:.;.;.;.;.-.-.-.-.@.O.1.1.1.1.1.",
"1.1.1.1.1.o.+.=.-.;.;.>.>.<.<.<.<.<.<.,.<.<.<.>.>.>.>.>.>.:.:.:.:.;.;.;.;.;.-.;.-.-.@.i 1.1.1.1.",
"1.1.1.1.D o.+.=.=.-.:.>.<.>.<.<.<.<.<.>.>.>.>.>.>.;.;.;.:.>.>.;.:.;.;.;.-.;.-.-.-.;.@.Y 1.1.1.1.",
"1.1.1.1.! o.@.=.-.;.;.>.>.,.<.<.<.<.<.>.>.:.>.:.;.;.>.;.>.;.>.:.:.;.;.;.;.-.-.;.-.;.@.] 1.1.1.1.",
"1.1.1.1.| o.+.=.*.;.:.:.>.,.>.<.<.<.<.>.>.>.>.;.>.;.:.;.>.:.:.:.:.;.;.;.;.-.-.-.-.-.=.o.1.1.1.1.",
"1.1.1.p | o.@.=.-.;.:.>.<.>.,.,.<.<.<.>.,.>.>.:.>.;.>.:.:.:.>.:.:.:.;.;.-.;.;.-.-.-.=.o.Z 1.1.1.",
"1.1.1.Y  .o.@.=.-.;.:.>.>.,.,.>.<.<.<.,.,.>.>.>.>.>.:.:.>.:.:.:.;.;.;.;.;.;.-.-.-.-.@.o.! 1.1.1.",
"1.1.1.] | o.+.=.=.;.;.>.,.>.,.>.>.>.>.:.;.>.:.:.;.-.:.-.;.;.:.;.:.:.;.;.;.-.-.;.-.-.=.o. .1.1.1.",
"1.1.u ]  .o.@.=.-.;.;.>.>.,.>.>.,.<.<.,.,.,.:.>.>.:.>.>.:.:.:.:.;.;.;.;.;.;.-.-.-.-.@.o.{ N 1.1.",
"1.1.G ^ | o.@.=.-.;.;.>.,.,.,.,.<.<.<.<.,.,.,.,.>.,.>.,.>.>.>.>.>.:.;.;.-.;.-.-.-.-.=.o.{ T 1.1.",
"1.1.~ ^ | o.+.=.-.>.>.:.:.;.-.=.%.o.o. ...| { [ } | |  . . .%.+.@.-.-.;.;.:.:.;.-.-.=.o.{ ! 1.1.",
"1.u ^ ^ o.=.=.=.+.| } ) ~ ~ ~ ~ ] ] ~ Q F B p p B D I ~ ] } ] ] ^ ~ ) ~ ] } | +.=.=.-.+.{ ^ B 1.",
"1.Z | o.{ ~ Q Q Q ~ ] ] | } } { ] Q p 3 : 3 q e y R Q D F ~ } [ | | } | { ] ] Q Q ! ~ | o.| D 1.",
"1.1 F Y Q ~ ) ^ ] ] ] ] ] ] ] ~ F 3 = ; q B D F I ] [ I D B T ^ ] ] ] ] ] ] ] ] } ^ ) Q Y F q 1.",
"1.; N R ~ ) ^ ^ ~ ~ ~ ^ ~ ~ ~ D : = 3 Z I F D S C S D Y Y D N Y ) ^ ^ ^ ] ] ] ] ^ ^ ^ ^ R C 1 1.",
"1.= N T ~ ! ~ ! ~ ~ ~ ~ ~ ~ I 1 = y ~ Y F p r q w y B B C F S p W ~ ~ ) ~ ~ ~ ~ ~ ) ^ ) R B 1 1.",
"1.= p Y Q ! Q Q Q Q Q Q ! R e = e ~ ] S q 3 ; $ + + $ w N N D B B Q ~ Q ! ! ! ! ~ ! ! ~ T N , 1.",
"1.= i I R Q Q Q Q Q Q Q R D ; ; i D u i V V W ) W t + + 1 B N C i Y Q Q Q Q Q Q Q Q Q Q Y N : 1.",
"1.= e i N B V B B B V C D r = 3 r 3 1 e A &.*.%...} S + O q B B i t C C I W Q T G S W R I p : 1.",
"1.= @ + @ @ @ @ @ @ @ = 3 = = q w @ = 2 E $.$.X.` ( W ; + + B B p + $ @ q T T T e = S T G p ; 1.",
"1.$ e N Z C Z S Z S S S D q = q 3 O + , H _ ' _ / E F , @ + r C j t Z Z G Y T Y I D Y Y F i ; 1.",
"1.$ t D F G I G G G G I G t = 3 ; o + > h K P L L K j 2 $ + w C p C I I I I I I I I I I J t ; 1.",
"1.$ r Z F F F F F F F F F N = 1 1 O + = 7 k m M m l 9 < = @ t D t D F I F G G F J F G I D t = 1.",
"1.$ e C F D F F F F D F F Z 1 ; 1 O + @ 4 d z b c g 8 < 1 $ D Z r D F F F F F F F F F F Z t = 1.",
"1.= t F F D D D D D D D D Z i = : = o + & s x n v f 0 t q e F i B D D D D F D F D F F G F u ; 1.",
"1.$ q N G T Q W Y F D S S S S r ; 1 @ O @ % * a a 5 e e t Q D i Z D D D D D F T T W Y G C r = 1.",
"1.1.1.1.O = 3 t D F Y T R R T I i 1 : = O O O + $ $ = i ^ ! C I Y T R R R Y F S i w : @ 1.1.1.1.",
"1.1.1.1.1.1.1.1.. O $ = 3 q r i p t 1 : 1 1 = = = q r p B N C B p u e 3 > = + X 1.1.1.1.1.1.1.1.",
"1.1.1.1.1.1.1.1.1.1.1.1.1.1.  . X o o o O $ = 1 1 ; $ O + O O X .   1.1.1.1.1.1.1.1.1.1.1.1.1.1.",
"1.1.1.1.1.1.1.1.1.1.1.1.1.1.1.1.1.1.1.1.1.1.      1.1.1.1.1.1.1.1.1.1.1.1.1.1.1.1.1.1.1.1.1.1.1.",
"1.1.1.1.1.1.1.1.1.1.1.1.1.1.1.1.1.1.1.1.1.1.1.1.1.1.1.1.1.1.1.1.1.1.1.1.1.1.1.1.1.1.1.1.1.1.1.1.",
"1.1.1.1.1.1.1.1.1.1.1.1.1.1.1.1.1.1.1.1.1.1.1.1.1.1.1.1.1.1.1.1.1.1.1.1.1.1.1.1.1.1.1.1.1.1.1.1.",
"1.1.1.1.1.1.1.1.1.1.1.1.1.1.1.1.1.1.1.1.1.1.1.1.1.1.1.1.1.1.1.1.1.1.1.1.1.1.1.1.1.1.1.1.1.1.1.1.",
"1.1.1.1.1.1.1.1.1.1.1.1.1.1.1.1.1.1.1.1.1.1.1.1.1.1.1.1.1.1.1.1.1.1.1.1.1.1.1.1.1.1.1.1.1.1.1.1.",
"1.1.1.1.1.1.1.1.1.1.1.1.1.1.1.1.1.1.1.1.1.1.1.1.1.1.1.1.1.1.1.1.1.1.1.1.1.1.1.1.1.1.1.1.1.1.1.1.",
"1.1.1.1.1.1.1.1.1.1.1.1.1.1.1.1.1.1.1.1.1.1.1.1.1.1.1.1.1.1.1.1.1.1.1.1.1.1.1.1.1.1.1.1.1.1.1.1."
};
